<svg xmlns="http://www.w3.org/2000/svg" viewBox="0 0 425.2 89.48"><defs><style>.cls-1{fill:#393939;}.cls-2{fill:#e73c00;}</style></defs><title>Asset 2</title><g id="Layer_2" data-name="Layer 2"><g id="Í_ã_1" data-name="Í¼²ã_1"><path class="cls-1" d="M138.65,63.53V31.59L125.44,63.53h-2L110.31,31.59V63.53h-4.83V24.72h6.92l12,29.21,12.1-29.21h6.93V63.53Z"/><path class="cls-1" d="M167,64.24a19.81,19.81,0,0,1-7.86-1.52A17.85,17.85,0,0,1,153,58.5a19.31,19.31,0,0,1-3.93-6.38,23.45,23.45,0,0,1,0-15.94A19.3,19.3,0,0,1,153,29.81a17.84,17.84,0,0,1,6.08-4.22,21.13,21.13,0,0,1,15.72,0,17.84,17.84,0,0,1,6.08,4.22,19.32,19.32,0,0,1,3.93,6.38,23.45,23.45,0,0,1,0,15.94,19.33,19.33,0,0,1-3.93,6.38,17.85,17.85,0,0,1-6.08,4.22A19.79,19.79,0,0,1,167,64.24Zm0-4.31a14,14,0,0,0,5.87-1.2,13,13,0,0,0,4.48-3.31,15.13,15.13,0,0,0,2.88-5,18.64,18.64,0,0,0,1-6.26,18.88,18.88,0,0,0-1-6.29,14.8,14.8,0,0,0-2.88-5,13.31,13.31,0,0,0-4.48-3.28,14,14,0,0,0-5.87-1.2,14.22,14.22,0,0,0-5.91,1.2,13.15,13.15,0,0,0-4.51,3.28,14.55,14.55,0,0,0-2.85,5,19.55,19.55,0,0,0-1,6.29,19.29,19.29,0,0,0,1,6.26,14.86,14.86,0,0,0,2.85,5,12.9,12.9,0,0,0,4.51,3.31A14.22,14.22,0,0,0,167,59.93Z"/><path class="cls-1" d="M218,63.53l-22.64-31v31h-4.83V24.72h4.94L217.85,55V24.72h4.83V63.53Z"/><path class="cls-1" d="M246.39,64.24a19.8,19.8,0,0,1-7.86-1.52,17.86,17.86,0,0,1-6.08-4.22,19.31,19.31,0,0,1-3.93-6.38,23.44,23.44,0,0,1,0-15.94,19.3,19.3,0,0,1,3.93-6.38,17.85,17.85,0,0,1,6.08-4.22,21.12,21.12,0,0,1,15.71,0,17.85,17.85,0,0,1,6.08,4.22,19.3,19.3,0,0,1,3.93,6.38,23.43,23.43,0,0,1,0,15.94,19.3,19.3,0,0,1-3.93,6.38,17.86,17.86,0,0,1-6.08,4.22A19.79,19.79,0,0,1,246.39,64.24Zm0-4.31a14,14,0,0,0,5.87-1.2,13,13,0,0,0,4.48-3.31,15.12,15.12,0,0,0,2.88-5,18.64,18.64,0,0,0,1-6.26,18.88,18.88,0,0,0-1-6.29,14.79,14.79,0,0,0-2.88-5,13.3,13.3,0,0,0-4.48-3.28,14,14,0,0,0-5.87-1.2,14.21,14.21,0,0,0-5.91,1.2A13.15,13.15,0,0,0,236,32.87a14.51,14.51,0,0,0-2.85,5,19.55,19.55,0,0,0-1,6.29,19.29,19.29,0,0,0,1,6.26,14.83,14.83,0,0,0,2.85,5,12.9,12.9,0,0,0,4.51,3.31A14.21,14.21,0,0,0,246.39,59.93Z"/><path class="cls-2" d="M289.84,64.29a22.24,22.24,0,0,1-8-1.43,20.05,20.05,0,0,1-6.58-4,18.76,18.76,0,0,1-4.45-6.34,20.52,20.52,0,0,1-1.63-8.32,20.55,20.55,0,0,1,1.63-8.32,18.78,18.78,0,0,1,4.45-6.34,19.58,19.58,0,0,1,6.58-4,22.68,22.68,0,0,1,8-1.4,20.41,20.41,0,0,1,5.5.7,18.42,18.42,0,0,1,4.45,1.89,17,17,0,0,1,3.49,2.77,21,21,0,0,1,2.62,3.32L299,36.48a12,12,0,0,0-3.69-3.55,9.94,9.94,0,0,0-5.5-1.52,12.18,12.18,0,0,0-4.86,1,11.68,11.68,0,0,0-3.87,2.68,12.29,12.29,0,0,0-2.53,4.05,13.83,13.83,0,0,0-.9,5.07,14.07,14.07,0,0,0,.9,5.11,11.92,11.92,0,0,0,2.53,4.05A11.68,11.68,0,0,0,285,56a12.16,12.16,0,0,0,4.86,1,12.48,12.48,0,0,0,4.86-.94,11.17,11.17,0,0,0,3.4-2.05V49.28H287.87V42h18.5V56.94a22.63,22.63,0,0,1-7.1,5.34A21.32,21.32,0,0,1,289.84,64.29Z"/><path class="cls-2" d="M337.86,63.53,335.47,57H318.83l-2.44,6.57H307l15-38.81h10.36l15,38.81ZM327.15,33l-6.05,16.71h12.1Z"/><path class="cls-2" d="M383.19,63.53V36.36L372.25,63.53h-3.61L357.7,36.36V63.53h-8.27V24.72H361l9.42,23.45,9.41-23.45h11.62V63.53Z"/><path class="cls-2" d="M397.73,63.53V24.72H425.2V32H406V40.2h18.8v7.27H406v8.78h19.2v7.27Z"/><path class="cls-2" d="M89.47,38.63V26.41a26.4,26.4,0,0,0-44.74-19A26.39,26.39,0,0,0,0,26.41V63.07A26.44,26.44,0,0,0,26.41,89.48H63.07A26.44,26.44,0,0,0,89.47,63.07V45.31H36.65V61.48H73.31v1.59A10.26,10.26,0,0,1,63.07,73.31H26.41A10.26,10.26,0,0,1,16.16,63.07V26.41a10.25,10.25,0,1,1,20.49,0V38.63H52.82V26.41a10.25,10.25,0,1,1,20.49,0V38.63Z"/></g></g></svg>